<mxfile host="app.diagrams.net" agent="Mozilla/5.0 (Windows NT 10.0; Win64; x64) AppleWebKit/537.36 (KHTML, like Gecko) Chrome/136.0.0.0 Safari/537.36" version="27.0.6">
  <diagram id="C5RBs43oDa-KdzZeNtuy" name="Page-1">
    <mxGraphModel dx="1869" dy="600" grid="1" gridSize="10" guides="1" tooltips="1" connect="1" arrows="1" fold="1" page="1" pageScale="1" pageWidth="827" pageHeight="1169" math="0" shadow="0">
      <root>
        <mxCell id="WIyWlLk6GJQsqaUBKTNV-0" />
        <mxCell id="WIyWlLk6GJQsqaUBKTNV-1" parent="WIyWlLk6GJQsqaUBKTNV-0" />
        <mxCell id="qMaVWmNzVyqg5r8EI621-2" value="" style="edgeStyle=orthogonalEdgeStyle;rounded=0;orthogonalLoop=1;jettySize=auto;html=1;" edge="1" parent="WIyWlLk6GJQsqaUBKTNV-1" source="qMaVWmNzVyqg5r8EI621-0" target="qMaVWmNzVyqg5r8EI621-1">
          <mxGeometry relative="1" as="geometry" />
        </mxCell>
        <mxCell id="qMaVWmNzVyqg5r8EI621-0" value="开始" style="strokeWidth=2;html=1;shape=mxgraph.flowchart.terminator;whiteSpace=wrap;" vertex="1" parent="WIyWlLk6GJQsqaUBKTNV-1">
          <mxGeometry x="155" y="20" width="110" height="50" as="geometry" />
        </mxCell>
        <mxCell id="qMaVWmNzVyqg5r8EI621-4" value="" style="edgeStyle=orthogonalEdgeStyle;rounded=0;orthogonalLoop=1;jettySize=auto;html=1;" edge="1" parent="WIyWlLk6GJQsqaUBKTNV-1" source="qMaVWmNzVyqg5r8EI621-1" target="qMaVWmNzVyqg5r8EI621-3">
          <mxGeometry relative="1" as="geometry" />
        </mxCell>
        <mxCell id="qMaVWmNzVyqg5r8EI621-1" value="输入用户名和密码" style="rounded=1;whiteSpace=wrap;html=1;strokeWidth=2;" vertex="1" parent="WIyWlLk6GJQsqaUBKTNV-1">
          <mxGeometry x="155" y="130" width="110" height="40" as="geometry" />
        </mxCell>
        <mxCell id="qMaVWmNzVyqg5r8EI621-6" value="" style="edgeStyle=orthogonalEdgeStyle;rounded=0;orthogonalLoop=1;jettySize=auto;html=1;" edge="1" parent="WIyWlLk6GJQsqaUBKTNV-1" source="qMaVWmNzVyqg5r8EI621-3" target="qMaVWmNzVyqg5r8EI621-5">
          <mxGeometry relative="1" as="geometry" />
        </mxCell>
        <mxCell id="qMaVWmNzVyqg5r8EI621-9" value="" style="edgeStyle=orthogonalEdgeStyle;rounded=0;orthogonalLoop=1;jettySize=auto;html=1;" edge="1" parent="WIyWlLk6GJQsqaUBKTNV-1" source="qMaVWmNzVyqg5r8EI621-3" target="qMaVWmNzVyqg5r8EI621-8">
          <mxGeometry relative="1" as="geometry" />
        </mxCell>
        <mxCell id="qMaVWmNzVyqg5r8EI621-3" value="校验密码" style="rhombus;whiteSpace=wrap;html=1;rounded=1;strokeWidth=2;" vertex="1" parent="WIyWlLk6GJQsqaUBKTNV-1">
          <mxGeometry x="155" y="240" width="110" height="50" as="geometry" />
        </mxCell>
        <mxCell id="qMaVWmNzVyqg5r8EI621-15" style="edgeStyle=orthogonalEdgeStyle;rounded=0;orthogonalLoop=1;jettySize=auto;html=1;" edge="1" parent="WIyWlLk6GJQsqaUBKTNV-1" source="qMaVWmNzVyqg5r8EI621-5" target="qMaVWmNzVyqg5r8EI621-14">
          <mxGeometry relative="1" as="geometry" />
        </mxCell>
        <mxCell id="qMaVWmNzVyqg5r8EI621-5" value="登陆失败" style="whiteSpace=wrap;html=1;rounded=1;strokeWidth=2;" vertex="1" parent="WIyWlLk6GJQsqaUBKTNV-1">
          <mxGeometry x="-10" y="238.75" width="80" height="52.5" as="geometry" />
        </mxCell>
        <mxCell id="qMaVWmNzVyqg5r8EI621-7" value="N" style="text;html=1;align=center;verticalAlign=middle;resizable=0;points=[];autosize=1;strokeColor=none;fillColor=none;" vertex="1" parent="WIyWlLk6GJQsqaUBKTNV-1">
          <mxGeometry x="120" y="240" width="30" height="30" as="geometry" />
        </mxCell>
        <mxCell id="qMaVWmNzVyqg5r8EI621-12" value="" style="edgeStyle=orthogonalEdgeStyle;rounded=0;orthogonalLoop=1;jettySize=auto;html=1;" edge="1" parent="WIyWlLk6GJQsqaUBKTNV-1" source="qMaVWmNzVyqg5r8EI621-8" target="qMaVWmNzVyqg5r8EI621-11">
          <mxGeometry relative="1" as="geometry" />
        </mxCell>
        <mxCell id="qMaVWmNzVyqg5r8EI621-8" value="生成并记录token" style="whiteSpace=wrap;html=1;rounded=1;strokeWidth=2;" vertex="1" parent="WIyWlLk6GJQsqaUBKTNV-1">
          <mxGeometry x="350" y="242.5" width="80" height="45" as="geometry" />
        </mxCell>
        <mxCell id="qMaVWmNzVyqg5r8EI621-10" value="Y" style="text;html=1;align=center;verticalAlign=middle;resizable=0;points=[];autosize=1;strokeColor=none;fillColor=none;" vertex="1" parent="WIyWlLk6GJQsqaUBKTNV-1">
          <mxGeometry x="290" y="240" width="30" height="30" as="geometry" />
        </mxCell>
        <mxCell id="qMaVWmNzVyqg5r8EI621-16" value="" style="edgeStyle=orthogonalEdgeStyle;rounded=0;orthogonalLoop=1;jettySize=auto;html=1;" edge="1" parent="WIyWlLk6GJQsqaUBKTNV-1" source="qMaVWmNzVyqg5r8EI621-11" target="qMaVWmNzVyqg5r8EI621-14">
          <mxGeometry relative="1" as="geometry" />
        </mxCell>
        <mxCell id="qMaVWmNzVyqg5r8EI621-11" value="登陆成功" style="whiteSpace=wrap;html=1;rounded=1;strokeWidth=2;" vertex="1" parent="WIyWlLk6GJQsqaUBKTNV-1">
          <mxGeometry x="335" y="340" width="110" height="40" as="geometry" />
        </mxCell>
        <mxCell id="qMaVWmNzVyqg5r8EI621-14" value="结束" style="strokeWidth=2;html=1;shape=mxgraph.flowchart.terminator;whiteSpace=wrap;" vertex="1" parent="WIyWlLk6GJQsqaUBKTNV-1">
          <mxGeometry x="-20" y="330" width="100" height="60" as="geometry" />
        </mxCell>
      </root>
    </mxGraphModel>
  </diagram>
</mxfile>
